<?xml version="1.0"?>
<svg xmlns="http://www.w3.org/2000/svg" height="512px" viewBox="0 0 496 496" width="512px"><g><g fill="#231f20"><path d="m168 304c-57.34375 0-104 43.0625-104 96s46.65625 96 104 96 104-43.0625 104-96-46.65625-96-104-96zm0 176c-48.519531 0-88-35.886719-88-80s39.480469-80 88-80 88 35.886719 88 80-39.480469 80-88 80zm0 0" data-original="#000000" class="active-path" data-old_color="#000000" fill="#FFFFFF"/><path d="m124 304c19.882812 0 36-16.117188 36-36s-16.117188-36-36-36-36 16.117188-36 36c.023438 19.875 16.125 35.976562 36 36zm0-56c11.046875 0 20 8.953125 20 20s-8.953125 20-20 20-20-8.953125-20-20 8.953125-20 20-20zm0 0" data-original="#000000" class="active-path" data-old_color="#000000" fill="#FFFFFF"/><path d="m36 296c-19.882812 0-36 16.117188-36 36s16.117188 36 36 36 36-16.117188 36-36c-.023438-19.875-16.125-35.976562-36-36zm0 56c-11.046875 0-20-8.953125-20-20s8.953125-20 20-20 20 8.953125 20 20-8.953125 20-20 20zm0 0" data-original="#000000" class="active-path" data-old_color="#000000" fill="#FFFFFF"/><path d="m184 268c0 19.882812 16.117188 36 36 36s36-16.117188 36-36-16.117188-36-36-36c-19.875.023438-35.976562 16.125-36 36zm36-20c11.046875 0 20 8.953125 20 20s-8.953125 20-20 20-20-8.953125-20-20 8.953125-20 20-20zm0 0" data-original="#000000" class="active-path" data-old_color="#000000" fill="#FFFFFF"/><path d="m300 296c-19.882812 0-36 16.117188-36 36s16.117188 36 36 36 36-16.117188 36-36c-.023438-19.875-16.125-35.976562-36-36zm0 56c-11.046875 0-20-8.953125-20-20s8.953125-20 20-20 20 8.953125 20 20-8.953125 20-20 20zm0 0" data-original="#000000" class="active-path" data-old_color="#000000" fill="#FFFFFF"/><path d="m328 72c-57.34375 0-104 43.0625-104 96s46.65625 96 104 96 104-43.0625 104-96-46.65625-96-104-96zm0 176c-48.519531 0-88-35.886719-88-80s39.480469-80 88-80 88 35.886719 88 80-39.480469 80-88 80zm0 0" data-original="#000000" class="active-path" data-old_color="#000000" fill="#FFFFFF"/><path d="m284 72c19.882812 0 36-16.117188 36-36s-16.117188-36-36-36-36 16.117188-36 36c.023438 19.875 16.125 35.976562 36 36zm0-56c11.046875 0 20 8.953125 20 20s-8.953125 20-20 20-20-8.953125-20-20 8.953125-20 20-20zm0 0" data-original="#000000" class="active-path" data-old_color="#000000" fill="#FFFFFF"/><path d="m196 136c19.882812 0 36-16.117188 36-36s-16.117188-36-36-36-36 16.117188-36 36c.023438 19.875 16.125 35.976562 36 36zm0-56c11.046875 0 20 8.953125 20 20s-8.953125 20-20 20-20-8.953125-20-20 8.953125-20 20-20zm0 0" data-original="#000000" class="active-path" data-old_color="#000000" fill="#FFFFFF"/><path d="m380 72c19.882812 0 36-16.117188 36-36s-16.117188-36-36-36-36 16.117188-36 36c.023438 19.875 16.125 35.976562 36 36zm0-56c11.046875 0 20 8.953125 20 20s-8.953125 20-20 20-20-8.953125-20-20 8.953125-20 20-20zm0 0" data-original="#000000" class="active-path" data-old_color="#000000" fill="#FFFFFF"/><path d="m460 64c-19.882812 0-36 16.117188-36 36s16.117188 36 36 36 36-16.117188 36-36c-.023438-19.875-16.125-35.976562-36-36zm0 56c-11.046875 0-20-8.953125-20-20s8.953125-20 20-20 20 8.953125 20 20-8.953125 20-20 20zm0 0" data-original="#000000" class="active-path" data-old_color="#000000" fill="#FFFFFF"/></g></g> </svg>
