<?xml version="1.0"?>
<svg xmlns="http://www.w3.org/2000/svg" height="512px" viewBox="0 -25 512 512" width="512px" class=""><g><path d="m204.109375 375.859375c-4.140625 0-7.5 3.359375-7.5 7.5v9.390625c0 4.144531 3.359375 7.5 7.5 7.5 4.144531 0 7.5-3.355469 7.5-7.5v-9.390625c0-4.140625-3.355469-7.5-7.5-7.5zm0 0" data-original="#000000" class="active-path" data-old_color="#000000" fill="#FFFFFF"/><path d="m307.890625 400.25c4.140625 0 7.5-3.355469 7.5-7.5v-9.390625c0-4.140625-3.359375-7.5-7.5-7.5-4.144531 0-7.5 3.359375-7.5 7.5v9.390625c0 4.144531 3.355469 7.5 7.5 7.5zm0 0" data-original="#000000" class="active-path" data-old_color="#000000" fill="#FFFFFF"/><path d="m256 405.265625c7.15625 0 13.882812-3 18.453125-8.230469 2.726563-3.121094 2.410156-7.855468-.710937-10.585937-3.117188-2.726563-7.855469-2.40625-10.582032.710937-1.722656 1.972656-4.332031 3.105469-7.160156 3.105469s-5.4375-1.132813-7.160156-3.105469c-2.726563-3.117187-7.464844-3.4375-10.582032-.710937-3.121093 2.730469-3.4375 7.464843-.710937 10.585937 4.570313 5.230469 11.296875 8.230469 18.453125 8.230469zm0 0" data-original="#000000" class="active-path" data-old_color="#000000" fill="#FFFFFF"/><path d="m338.667969 285.027344c11.488281 0 20.832031-9.347656 20.832031-20.832032 0-11.488281-9.347656-20.835937-20.832031-20.835937-11.488281 0-20.832031 9.347656-20.832031 20.835937 0 11.484376 9.34375 20.832032 20.832031 20.832032zm0-26.667969c3.214843 0 5.832031 2.617187 5.832031 5.832031 0 3.21875-2.617188 5.835938-5.832031 5.835938-3.21875 0-5.832031-2.617188-5.832031-5.835938 0-3.214844 2.613281-5.832031 5.832031-5.832031zm0 0" data-original="#000000" class="active-path" data-old_color="#000000" fill="#FFFFFF"/><path d="m430.574219 258.359375c11.488281 0 20.835937-9.34375 20.835937-20.832031 0-11.488282-9.347656-20.832032-20.835937-20.832032-11.484375 0-20.832031 9.34375-20.832031 20.832032 0 11.488281 9.347656 20.832031 20.832031 20.832031zm0-26.664063c3.21875 0 5.835937 2.617188 5.835937 5.832032s-2.617187 5.832031-5.835937 5.832031c-3.214844 0-5.832031-2.617187-5.832031-5.832031s2.617187-5.832032 5.832031-5.832032zm0 0" data-original="#000000" class="active-path" data-old_color="#000000" fill="#FFFFFF"/><path d="m173.332031 285.027344c11.488281 0 20.832031-9.347656 20.832031-20.832032 0-11.488281-9.34375-20.835937-20.832031-20.835937s-20.832031 9.347656-20.832031 20.835937c0 11.484376 9.347656 20.832032 20.832031 20.832032zm0-26.667969c3.21875 0 5.832031 2.617187 5.832031 5.832031 0 3.21875-2.613281 5.835938-5.832031 5.835938-3.214843 0-5.832031-2.617188-5.832031-5.835938 0-3.214844 2.617188-5.832031 5.832031-5.832031zm0 0" data-original="#000000" class="active-path" data-old_color="#000000" fill="#FFFFFF"/><path d="m81.425781 258.359375c11.484375 0 20.832031-9.34375 20.832031-20.832031 0-11.488282-9.347656-20.832032-20.832031-20.832032-11.488281 0-20.835937 9.34375-20.835937 20.832032 0 11.488281 9.347656 20.832031 20.835937 20.832031zm0-26.664063c3.214844 0 5.832031 2.617188 5.832031 5.832032s-2.617187 5.832031-5.832031 5.832031c-3.21875 0-5.835937-2.617187-5.835937-5.832031s2.617187-5.832032 5.835937-5.832032zm0 0" data-original="#000000" class="active-path" data-old_color="#000000" fill="#FFFFFF"/><path d="m70.007812 279.503906c41.453126 20.34375 96.972657 33.136719 156.992188 36.253906v35.191407h-11.878906c-7.167969 0-13.644532-3.707031-16.914063-9.675781-7.535156-13.777344-21.960937-22.335938-37.652343-22.335938-21.785157 0-40.882813 17.402344-42.742188 39.160156-1.035156 12.121094 2.949219 23.730469 10.859375 32.460938-7.910156 8.730468-11.894531 20.34375-10.859375 32.464844 1.847656 21.65625 21.066406 39.160156 42.742188 39.160156 15.691406 0 30.117187-8.558594 37.652343-22.332032 3.269531-5.972656 9.75-9.679687 16.914063-9.679687h81.757812c7.167969 0 13.648438 3.707031 16.914063 9.679687 7.535156 13.773438 21.964843 22.332032 37.65625 22.332032 21.785156 0 40.882812-17.402344 42.738281-39.15625 1.035156-12.125-2.945312-23.734375-10.859375-32.464844 7.914063-8.730469 11.894531-20.339844 10.859375-32.464844-1.847656-21.667968-21.054688-39.160156-42.742188-39.160156-15.6875 0-30.117187 8.558594-37.652343 22.335938-3.265625 5.96875-9.746094 9.675781-16.914063 9.675781h-11.878906v-35.191407c60.019531-3.121093 115.539062-15.910156 156.992188-36.253906 45.144531-22.15625 70.007812-51.632812 70.007812-83.003906v-76.488281c0-33.175781-27.414062-63.855469-77.191406-86.390625-47.886719-21.679688-111.386719-33.621094-178.808594-33.621094-55.304688 0-107.871094 7.980469-152.023438 23.074219-3.917968 1.339843-6.007812 5.601562-4.667968 9.523437 1.335937 3.917969 5.601562 6.007813 9.519531 4.667969 42.609375-14.566406 93.5-22.265625 147.171875-22.265625 65.332031 0 126.636719 11.464844 172.621094 32.285156 21.917968 9.921875 39.03125 21.378906 50.871094 34.050782 11.617187 12.4375 17.507812 25.449218 17.507812 38.675781 0 9.046875-2.941406 17.945312-7.578125 25.652343-.101563.175782-.214844.347657-.320313.519532-14.742187-15.195313-36.386718-28.886719-63.273437-39.941406-3.832031-1.574219-8.214844.253906-9.789063 4.085937-1.574218 3.832031.253907 8.214844 4.082032 9.789063 26.03125 10.699218 46.515625 23.816406 59.746094 38.160156-36.890626 40.128906-125.453126 66.753906-223.871094 66.753906-98.425782 0-187-26.632812-223.882813-66.769531 36.875-40.140625 125.445313-66.769531 223.882813-66.769531 47.636718 0 93.769531 6.1875 133.417968 17.890624 3.96875 1.171876 8.144532-1.09375 9.316407-5.066406s-1.097657-8.144531-5.070313-9.316406c-41.007812-12.109375-88.609375-18.507812-137.664062-18.507812-52.886719 0-103.574219 7.351562-146.578125 21.257812-38.03125 12.300781-67.6875 28.929688-86.527344 48.425781-4.8125-7.875-7.890625-16.871093-7.890625-26.164062 0-26 22.867188-51.167969 64.386719-70.875 3.742187-1.773438 5.335937-6.25 3.558593-9.992188-1.777343-3.742187-6.25-5.335937-9.992187-3.558593-47.042969 22.328124-72.953125 52.308593-72.953125 84.425781v76.488281c0 31.371094 24.863281 60.847656 70.007812 83.003906zm256.945313 68.96875c4.902344-8.964844 14.289063-14.53125 24.492187-14.53125 14.164063 0 26.589844 11.273438 27.796876 25.429688.847656 9.917968-3.453126 19.304687-11.496094 25.109375-3.972656 2.867187-4.164063 9.160156 0 12.164062 8.042968 5.804688 12.34375 15.191407 11.496094 25.105469-1.203126 14.101562-13.695313 25.433594-27.796876 25.433594-10.203124 0-19.589843-5.570313-24.492187-14.53125-5.898437-10.78125-17.421875-17.480469-30.074219-17.480469h-81.757812c-12.648438 0-24.171875 6.699219-30.070313 17.480469-4.90625 8.964844-14.289062 14.53125-24.492187 14.53125-14.167969 0-26.589844-11.273438-27.796875-25.433594-.847657-9.914062 3.449219-19.300781 11.496093-25.105469 4.089844-2.953125 4.082032-9.21875 0-12.164062-8.046874-5.804688-12.34375-15.191407-11.5-25.109375 1.203126-14.089844 13.707032-25.429688 27.796876-25.429688 10.207031 0 19.589843 5.566406 24.496093 14.53125 5.898438 10.78125 17.421875 17.476563 30.070313 17.476563h81.757812c12.648438.003906 24.175782-6.695313 30.074219-17.476563zm-84.953125-54.292968c0-7.71875 6.28125-14 14-14s14 6.28125 14 14v56.773437h-28zm-227-132.996094c.4375.578125.886719 1.152344 1.347656 1.726562.007813.011719.011719.019532.019532.03125h.003906c18.117187 22.699219 50.296875 42.003906 93.058594 55.832032 43 13.90625 93.683593 21.257812 146.570312 21.257812s103.570312-7.351562 146.570312-21.257812c42.765626-13.828126 74.945313-33.136719 93.0625-55.832032 0-.003906.003907-.003906.003907-.007812.464843-.582032.917969-1.164063 1.363281-1.75v35.316406c0 25.34375-21.882812 50.039062-61.613281 69.539062-39.503907 19.382813-92.65625 31.621094-150.386719 34.703126v-6.5625c0-15.992188-13.007812-29-29-29s-29 13.007812-29 29v6.5625c-57.730469-3.082032-110.882812-15.320313-150.386719-34.707032-39.730469-19.5-61.613281-44.191406-61.613281-69.535156zm0 0" data-original="#000000" class="active-path" data-old_color="#000000" fill="#FFFFFF"/></g> </svg>
