<svg height="512pt" viewBox="0 0 512 512" width="512pt" xmlns="http://www.w3.org/2000/svg"><path d="m255.75 0c-69.019531 0-255.75 12.558594-255.75 79.058594v99.289062c0 54.296875 127.710938 71.457032 181.769531 76.015625 4.71875 12.328125 16.675781 21.113281 30.640625 21.113281h1.335938v26.925782c-39.316406 16.472656-67.003906 55.355468-67.003906 100.59375 0 60.101562 48.902343 109.003906 109.007812 109.003906s109.003906-48.902344 109.003906-109.003906c0-45.238282-27.6875-84.121094-67-100.59375v-26.925782h1.335938c12.789062 0 23.890625-7.359374 29.292968-18.070312h50.335938c16.585938 0 32.214844-6.203125 44.261719-17.507812 58.742187-14.449219 88.515625-35.148438 88.515625-61.550782 0-4.5625 0-92.253906 0-99.550781 0 0 0 0 0-.007813 0-66.746093-189.246094-78.789062-255.746094-78.789062zm0 30.117188c143.878906 0 225.621094 32.824218 225.621094 48.941406 0 7.449218-22.691406 18.230468-29.808594 21.074218-99.601562-34.5-292.050781-34.488281-391.636719 0-7.832031-3.148437-29.039062-13.132812-29.808593-21.074218 0-15.304688 78.632812-48.941406 225.632812-48.941406zm122.96875 197.171874h-46.582031v-69.171874h46.582031c19.066406 0 34.574219 15.511718 34.574219 34.585937 0 18.820313-15.199219 34.585937-34.574219 34.585937zm-51.972656-102.171874c-5.832032-9.125-16.050782-15.1875-27.65625-15.1875h-86.679688c-11.605468 0-21.824218 6.0625-27.660156 15.1875-24.09375-2.007813-46.660156-5.027344-66.859375-8.902344 83.808594-16.066406 195.40625-15.398438 275.707031-.011719-20.210937 3.886719-42.777344 6.90625-66.851562 8.914063zm-296.628906 53.230468v-59.140625c36.324218 21.320313 105.769531 31.890625 149.503906 35.699219v69.046875c-106.3125-9.636719-149.503906-35.492187-149.503906-45.605469zm304.519531 224.648438c0 43.496094-35.386719 78.886718-78.886719 78.886718s-78.890625-35.390624-78.890625-78.886718c0-43.492188 35.390625-78.898438 78.890625-78.898438 43.476562 0 78.886719 35.386719 78.886719 78.898438zm-67-108.363282c-7.867188-.871093-15.894531-.871093-23.773438 0v-19.15625h23.773438zm31.453125-49.273437c-36.105469 0 6.300781 0-86.679688 0-1.386718 0-2.519531-1.054687-2.660156-2.410156 0-.011719 0-.011719 0-.019531-.011719-.082032-.011719-.171876-.011719-.25v-99.953126c0-.449218.121094-.882812.324219-1.265624v-.007813c.449219-.832031 1.332031-1.40625 2.347656-1.40625h86.679688c1.472656 0 2.667968 1.203125 2.667968 2.679687v36.582032h-42.867187c-8.320313 0-15.058594 6.75-15.058594 15.0625 0 8.320312 6.738281 15.058594 15.058594 15.058594h42.867187v33.25c0 1.472656-1.195312 2.679687-2.667968 2.679687zm182.289062-67.011719c0 4.246094-10.089844 14.34375-38.75 24.414063 3.644532-23.074219-5.445312-46.460938-24.175781-61.078125 20.527344-4.804688 44.703125-12.074219 62.925781-22.476563zm0 0"/><path d="m91.695312 161.609375c-8.316406 0-15.058593 6.742187-15.058593 15.058594v3.347656c0 8.316406 6.742187 15.058594 15.058593 15.058594 8.316407 0 15.058594-6.742188 15.058594-15.058594v-3.347656c0-8.316407-6.742187-15.058594-15.058594-15.058594zm0 0"/><path d="m146.574219 168.324219c-8.316407 0-15.058594 6.742187-15.058594 15.058593v3.347657c0 8.316406 6.742187 15.058593 15.058594 15.058593 8.316406 0 15.058593-6.742187 15.058593-15.058593v-3.347657c0-8.316406-6.738281-15.058593-15.058593-15.058593zm0 0"/><path d="m372.792969 175.96875c-8.316407 0-15.058594 6.742188-15.058594 15.058594v3.347656c0 8.316406 6.742187 15.058594 15.058594 15.058594 8.316406 0 15.058593-6.742188 15.058593-15.058594v-3.347656c0-8.316406-6.742187-15.058594-15.058593-15.058594zm0 0"/><path d="m258.082031 376.359375.605469.605469-30.753906 30.753906c-7.03125-7.03125-16.371094-6.136719-21.902344-.605469-5.882812 5.882813-5.882812 15.417969 0 21.296875l22.507812 22.507813c5.882813 5.882812 15.414063 5.882812 21.296876 0 5.375-5.375 6.589843-14.703125-.605469-21.902344l30.753906-30.757813c7.152344 7.15625 16.496094 6.015626 21.90625.609376 5.878906-5.882813 5.878906-15.417969 0-21.296876l-22.511719-22.507812c-5.878906-5.882812-15.414062-5.882812-21.292968 0-5.886719 5.878906-5.886719 15.414062-.003907 21.296875zm0 0"/></svg>