<svg id="_x30_1_Parrot" enable-background="new 0 0 64 64" height="512" viewBox="0 0 64 64" width="512" xmlns="http://www.w3.org/2000/svg"><path d="m39.073 17c-6.198-.928-8.036-7.017-8.112-7.277l-.119-.416c-.885 1.062-1.563 2.296-1.842 3.693-1 5 3 7 3 7s4.764 3.472 7-1c.337-.674.613-1.346.846-2z" fill="#f0bc5e"/><path d="m63 42c0-1.654-1.346-3-3-3-8.501 0-13.33-3.745-13.375-3.781l-1.249 1.562c.215.172 5.379 4.219 14.624 4.219.551 0 1 .449 1 1 0 .229-.09.43-.22.599-.5-.372-1.111-.599-1.78-.599v2c.551 0 1 .449 1 1 0 .453-.454.805-.834 1.021-2 1.131-6.242 1.065-9.475-.788-1.195-1.87-2.451-4.327-3.761-7.604l-1.857.743c3.795 9.488 7.745 13.998 12.807 14.621.557.068 1.12.406 1.12 1.007 0 .229-.09.43-.22.599-.5-.372-1.111-.599-1.78-.599v2c.551 0 1 .449 1 1 0 1.405-1.431 2-2 2-5.547 0-15.234-8.656-15.331-8.743l-.34-.306-.453.057c-6.908.865-13.119-1.391-14.274-1.844-.128-.863-.214-1.805-.298-2.736-.377-4.21-.806-8.982-4.988-10.376l-.633 1.897c2.94.98 3.29 4.883 3.629 8.658.259 2.893.504 5.625 1.98 7.101 2.072 2.073 5.941 3.067 8.625 3.29.539.043 1.083.402 1.083 1.002 0 .279-.116.531-.302.712-.484-1.008-1.506-1.712-2.698-1.712v2c.551 0 1 .449 1 1s-.449 1-1 1c0-1.542-1.458-3-3-3v2c.449 0 1 .551 1 1s-.551 1-1 1c-1.667 0-4.458-2.12-6.702-3.822-1.985-1.507-3.7-2.809-5.056-3.148-3.38-.845-11.242-3.612-11.242-11.03 0-7.397 4.319-10.027 4.498-10.133l2.52-1.446-2.876-.411c-4.45-.635-5.676-4.01-6.014-5.839l5.73.818.283-1.979-2.261-.323.734-3.572 4.008 3.878 1.024-5.122c.654.427 1.419.72 2.269.905-.125 1.907.042 6.121 3.814 7.187 4.196 1.186 10.822 3.933 10.888 3.961l.768-1.847c-.275-.115-6.801-2.821-11.112-4.039-2.306-.651-2.446-3.585-2.366-5.043.031 0 .06.005.093.005 5.87 0 8-4.784 8-8 0-2.581-.793-11-11-11-8.71 0-11.348 5.881-11.949 7.684-.654 1.964-1.147 9.342 3.026 14.746l-4.077-.583v1.153c0 2.398 1.276 6.862 5.833 8.496-1.62 1.652-3.833 4.929-3.833 10.504 0 9.076 9.765 12.222 12.757 12.97.958.239 2.673 1.542 4.332 2.8 2.739 2.08 5.571 4.23 7.911 4.23.804 0 1.58-.401 2.144-1h.856c1.354 0 2.487-.907 2.859-2.141 1.234-.372 2.141-1.505 2.141-2.859 0-1.57-1.254-2.858-2.917-2.997-1.889-.156-5.568-.903-7.375-2.71-.198-.198-.359-.474-.501-.788 2.506.827 7.667 2.165 13.466 1.54 1.858 1.62 10.591 8.955 16.327 8.955 1.635 0 4-1.424 4-4 0-.244-.037-.477-.092-.704.661-.551 1.092-1.37 1.092-2.296 0-1.554-1.184-2.784-2.878-2.993-1.44-.177-3.132-.734-5.028-2.666 1.174.297 2.35.437 3.458.437 1.819 0 3.456-.371 4.599-1.018 1.192-.675 1.849-1.655 1.849-2.76 0-.244-.037-.477-.092-.704.661-.551 1.092-1.37 1.092-2.296zm-59.051-32.684c.633-1.899 2.879-6.316 10.051-6.316 7.831 0 9 5.639 9 9 0 2.075-1.254 6-6 6-3.497 0-4.537-1.772-5.051-3.316-.395-1.185-.229-2.407.454-3.355.608-.845 1.555-1.329 2.597-1.329 2.224 0 3.021 2.227 3.051 2.316l1.897-.633c-.05-.15-1.27-3.683-4.948-3.683-1.693 0-3.231.787-4.22 2.159-1.048 1.454-1.32 3.382-.729 5.158.232.697.531 1.317.894 1.86l-.566 2.831-3.992-3.862-.882 4.296c-2.446-4.533-1.987-9.834-1.556-11.126z"/><path d="m52 19c0-1.654-1.346-3-3-3s-3 1.346-3 3 1.346 3 3 3 3-1.346 3-3zm-4 0c0-.551.449-1 1-1s1 .449 1 1-.449 1-1 1-1-.449-1-1z"/><path d="m63 24c0-1.432-1.01-2.629-2.354-2.926-.183-.346-.464-.861-.83-1.496.649-.908 3.817-5.531 3.002-8.036-.236-.727-.755-1.242-1.502-1.491-1.18-.393-2.708-1.448-4.187-2.469-2.007-1.385-3.741-2.582-5.129-2.582-2.013 0-4.519 2.171-5.405 3.002-1.195-.146-2.224-.129-2.901-.082-.532-1.368-1.899-3.92-4.694-3.92-3.67 0-9.922 3.511-10.98 8.804-.472 2.358.064 4.224.911 5.591-.182 1.522-.374 5.682 2.269 9.206l1.6-1.2c-1.488-1.984-1.886-4.275-1.946-5.932.219.156.432.287.628.39.453.312 2.886 1.881 5.277 1.296 1.346-.327 2.401-1.238 3.136-2.708 2.081-4.163 2.105-8.274 2.105-8.447h-2c0 .038-.021 3.807-1.895 7.553-.464.929-1.058 1.472-1.813 1.657-1.401.345-3.149-.619-3.703-1.018l-.136-.083c-.135-.07-3.304-1.755-2.472-5.912.893-4.465 6.347-7.197 9.019-7.197 2.176 0 3.022 3.212 3.03 3.243l.225.892.908-.147c.053-.01 5.555-.855 9.13 2.72 2.854 2.854 5.215 6.82 6.249 8.687-.915.514-1.542 1.482-1.542 2.605 0 1.176.686 2.185 1.673 2.677-.917 1.955-3.935 6.323-12.673 6.323v2c10.744 0 13.974-6.07 14.756-8.108 1.287-.338 2.244-1.5 2.244-2.892zm-2.083-11.84c.3.923-.864 3.434-2.24 5.535-.474-.748-1.011-1.553-1.603-2.376 1.169-1.302 1.973-2.85 2.427-3.878.405.206.801.38 1.183.508.17.056.204.123.233.211zm-11.862-3.631c1.037-.811 2.212-1.529 2.945-1.529.765 0 2.555 1.236 3.994 2.229.586.405 1.18.814 1.769 1.195-.342.805-.988 2.128-1.926 3.265-.666-.83-1.379-1.645-2.13-2.395-1.431-1.432-3.078-2.273-4.652-2.765zm10.945 16.471c-.551 0-1-.449-1-1s.449-1 1-1 1 .449 1 1-.449 1-1 1z"/><path d="m45 39c-5.923 0-11.081-2.734-15.768-8.36l-.121-.145-.06-.179c-.063-.191-.596-1.902.317-3.169.378-.523 1.141-1.147 2.632-1.147h.458l.3.349c.058.066 5.811 6.651 13.242 6.651h.781l.189.757c.128.512.713 3.132-.324 4.46-.394.505-.979.783-1.646.783z" fill="#f0bc5e"/></svg>