<?xml version="1.0" encoding="iso-8859-1"?>
<!-- Generator: Adobe Illustrator 16.0.0, SVG Export Plug-In . SVG Version: 6.00 Build 0)  -->
<!DOCTYPE svg PUBLIC "-//W3C//DTD SVG 1.1//EN" "http://www.w3.org/Graphics/SVG/1.1/DTD/svg11.dtd">
<svg version="1.1" id="Capa_1" xmlns="http://www.w3.org/2000/svg" xmlns:xlink="http://www.w3.org/1999/xlink" x="0px" y="0px"
	 width="868.18px" height="868.18px" viewBox="0 0 868.18 868.18" style="enable-background:new 0 0 868.18 868.18;"
	 xml:space="preserve">
<g>
	<g>
		<path d="M534.731,770.189c-29.399-3.199-54.399-30-76.6-53.899c-8.1-8.7-16.9-17.7-23.9-24.2c-7.5,6.6-15.899,15.5-24,24.2
			c-22.199,23.899-47.199,50.7-76.6,53.899c4.5,51.9,47.7,92.7,100.6,93.4C487.132,862.89,530.231,822.09,534.731,770.189z"/>
		<path d="M54.932,406.189c44,0,76.1-9.5,99.2-21.8v-182.8c0-9.7,7.8-17.5,17.5-17.5s17.5,7.8,17.5,17.5v156.7v42l-4.9,5.1
			c-34.1,35.3-52.9,83.4-52.9,135.5c0,107.8,88.1,195.601,196.399,195.601c1.7,0,3.4-0.301,5.4-0.801c16-4.199,35.4-25.1,51.4-42.3
			c10.8-11.6,21.1-22.7,31.6-30.899v-67.801c-8.9-1.6-17.4-4.3-25.4-8c-35.5-16.399-60.199-52.399-60.199-94.1
			c0-57.2,46.3-103.6,103.5-103.7c57,0.101,103.5,46.5,103.5,103.7c0,41.7-24.601,77.7-60.101,94.1c-8,3.7-16.399,6.4-25.399,8
			v67.801c10,8.3,20.8,19.399,31.5,30.899c16,17.2,35.3,38.101,51.3,42.3c2,0.5,3.6,0.801,5.399,0.801
			c108.301,0,196.4-87.7,196.4-195.601c0-52.1-18.7-100.2-52.8-135.5l-4.8-5.1v-42v-156.7c0-9.7,7.8-17.5,17.5-17.5
			c9.699,0,17.6,7.8,17.6,17.5v182.8c23,12.3,55.2,21.8,99.2,21.8c123.8,0,33-401.6-221.7-401.6h-157.5h-157.6
			C21.732,4.59-68.968,406.189,54.932,406.189z M501.132,232.29c0.3,0,0.6,0,0.8,0c18.5,0.5,33.4,15.6,33.4,34.3
			c0,8.6-3.2,16.4-8.4,22.4c-6.1,7.1-15.1,11.6-25.1,11.8c-0.3,0-0.601,0-0.8,0c-18.5,0-33.601-14.6-34.301-33c0-0.4,0-0.9,0-1.3
			C466.932,247.69,482.231,232.29,501.132,232.29z M366.932,232.29c18.9,0,34.3,15.4,34.3,34.3c0,0.4,0,0.9,0,1.3
			c-0.699,18.3-15.8,33-34.3,33c-10.399,0-19.6-4.6-25.899-11.9c-5.2-6-8.4-13.9-8.4-22.4
			C332.632,247.69,348.032,232.29,366.932,232.29z"/>
	</g>
</g>
<g>
</g>
<g>
</g>
<g>
</g>
<g>
</g>
<g>
</g>
<g>
</g>
<g>
</g>
<g>
</g>
<g>
</g>
<g>
</g>
<g>
</g>
<g>
</g>
<g>
</g>
<g>
</g>
<g>
</g>
</svg>
