<svg height="512pt" viewBox="0 -31 512 512" width="512pt" xmlns="http://www.w3.org/2000/svg"><path d="m286 280c-4.007812 0-7.773438 1.5625-10.605469 4.394531l-8.789062 8.785157c-2.8125 2.8125-6.625 4.394531-10.605469 4.394531-3.976562 0-7.792969-1.578125-10.605469-4.394531l-8.789062-8.785157c-2.832031-2.832031-6.597657-4.394531-10.605469-4.394531-4.003906 0-7.773438 1.5625-10.605469 4.394531-5.847656 5.847657-5.847656 15.363281 0 21.214844l40.605469 40.265625 40.648438-40.3125c2.789062-2.789062 4.351562-6.554688 4.351562-10.5625s-1.5625-7.773438-4.394531-10.605469-6.597657-4.394531-10.605469-4.394531zm0 0"/><path d="m414.511719 267.472656c-9.699219-34.933594-30.078125-64.992187-58.941407-86.933594-28.859374-21.941406-63.277343-33.539062-99.535156-33.539062-36.28125 0-70.71875 11.613281-99.59375 33.585938-28.875 21.96875-49.246094 52.066406-58.917968 87.035156l-21.933594 79.289062c-6.894532 24.933594-1.851563 51.03125 13.84375 71.601563 15.648437 20.507812 39.394531 32.257812 65.183594 32.257812h.222656l202.757812-.53125c25.800782-.066406 49.539063-11.898437 65.128906-32.457031 15.585938-20.5625 20.570313-46.613281 13.667969-71.476562zm-96.691407 59.347656-51.257812 50.832032c-2.925781 2.898437-6.742188 4.347656-10.5625 4.347656s-7.636719-1.449219-10.5625-4.347656l-51.210938-50.785156c-17.589843-17.59375-17.589843-46.140626-.046874-63.6875 16.953124-16.949219 44.171874-17.523438 61.820312-1.722657 17.648438-15.800781 44.871094-15.226562 61.820312 1.722657 17.542969 17.546874 17.542969 46.09375 0 63.640624zm0 0"/><path d="m175 130c35.839844 0 65-29.160156 65-65s-29.160156-65-65-65-65 29.160156-65 65 29.160156 65 65 65zm0 0"/><path d="m337 130c35.839844 0 65-29.160156 65-65s-29.160156-65-65-65-65 29.160156-65 65 29.160156 65 65 65zm0 0"/><path d="m457 108c-30.328125 0-55 24.671875-55 55s24.671875 55 55 55 55-24.671875 55-55-24.671875-55-55-55zm0 0"/><path d="m110 163c0-30.328125-24.671875-55-55-55s-55 24.671875-55 55 24.671875 55 55 55 55-24.671875 55-55zm0 0"/></svg>