<svg id="_x30_1_Parrot" enable-background="new 0 0 64 64" height="512" viewBox="0 0 64 64" width="512" xmlns="http://www.w3.org/2000/svg"><g fill="#f0bc5e"><path d="m26.972 14.202c1.425 1.158 3.192 1.798 5.028 1.798 4.411 0 8-3.589 8-8 0-1.835-.64-3.603-1.797-5.028-5.272 1.795-9.436 5.959-11.231 11.23z"/><path d="m61.028 25.798c-1.425-1.158-3.192-1.798-5.028-1.798-4.411 0-8 3.589-8 8 0 1.835.64 3.603 1.798 5.028 5.271-1.795 9.435-5.959 11.23-11.23z"/><path d="m49.797 2.972c-1.157 1.425-1.797 3.193-1.797 5.028 0 4.411 3.589 8 8 8 1.836 0 3.603-.64 5.028-1.798-1.795-5.271-5.959-9.435-11.231-11.23z"/></g><path d="m25 45c-.552 0-1-.449-1-1v-3.184c1.161-.414 2-1.514 2-2.816 0-1.654-1.346-3-3-3s-3 1.346-3 3c0 1.302.839 2.402 2 2.816v3.184c0 .551-.448 1-1 1s-1-.449-1-1h-2c0 1.654 1.346 3 3 3 .771 0 1.468-.301 2-.78.532.48 1.229.78 2 .78 1.654 0 3-1.346 3-3h-2c0 .551-.448 1-1 1zm-2-8c.552 0 1 .449 1 1s-.448 1-1 1-1-.449-1-1 .448-1 1-1z"/><path d="m16 31c1.654 0 3-1.346 3-3s-1.346-3-3-3-3 1.346-3 3 1.346 3 3 3zm0-4c.552 0 1 .449 1 1s-.448 1-1 1-1-.449-1-1 .448-1 1-1z"/><path d="m30 31c1.654 0 3-1.346 3-3s-1.346-3-3-3-3 1.346-3 3 1.346 3 3 3zm0-4c.552 0 1 .449 1 1s-.448 1-1 1-1-.449-1-1 .448-1 1-1z"/><path d="m50 17c-1.654 0-3 1.346-3 3s1.346 3 3 3 3-1.346 3-3-1.346-3-3-3zm0 4c-.552 0-1-.449-1-1s.448-1 1-1 1 .449 1 1-.448 1-1 1z"/><path d="m63 20c0-10.477-8.523-19-19-19-10.172 0-18.479 8.042-18.954 18.099-.674-.063-1.356-.099-2.046-.099-3.507 0-6.822.829-9.767 2.295l-.236-.236c-1.327-1.328-3.093-2.059-4.97-2.059s-3.642.731-4.969 2.059c-1.327 1.327-2.058 3.091-2.058 4.968s.73 3.642 2.059 4.969l.236.236c-1.466 2.946-2.295 6.261-2.295 9.768 0 12.131 9.869 22 22 22s22-9.869 22-22c0-.69-.036-1.372-.099-2.046 10.057-.475 18.099-8.782 18.099-18.954zm-20.051 20h-10c-.504-5.046-4.773-9-9.949-9s-9.446 3.954-9.949 9h-10c.526-10.562 9.258-19 19.949-19s19.423 8.438 19.949 19zm-8.346-17.68c.927-.844 2.108-1.32 3.37-1.32 1.343 0 2.605.523 3.555 1.473s1.473 2.212 1.473 3.555c0 1.262-.476 2.443-1.32 3.37-1.788-2.866-4.213-5.292-7.078-7.078zm-3.603 18.68c0 4.411-3.589 8-8 8s-8-3.589-8-8 3.589-8 8-8 8 3.589 8 8zm-28-14.973c0-1.343.522-2.605 1.473-3.555.949-.949 2.212-1.472 3.554-1.472 1.262 0 2.443.477 3.37 1.32-2.865 1.786-5.291 4.212-7.077 7.077-.844-.927-1.32-2.108-1.32-3.37zm20 34.973c-10.691 0-19.423-8.438-19.949-19h10c.504 5.046 4.773 9 9.949 9s9.446-3.954 9.949-9h10c-.526 10.562-9.258 19-19.949 19zm21.623-24.032c-.376-2.022-1.028-3.947-1.918-5.736l.236-.236c1.329-1.327 2.059-3.092 2.059-4.969s-.731-3.642-2.059-4.969c-1.327-1.327-3.091-2.058-4.968-2.058s-3.643.731-4.97 2.059l-.236.236c-1.788-.89-3.714-1.542-5.735-1.918.331-9.084 7.804-16.377 16.968-16.377 9.374 0 17 7.626 17 17 0 9.164-7.293 16.637-16.377 16.968z"/></svg>